<?xml version="1.0" encoding="UTF-8"?>
<svg version="1.1" xmlns="http://www.w3.org/2000/svg" width="1254" height="1254">
<path d="M0 0 C413.82 0 827.64 0 1254 0 C1254 413.82 1254 827.64 1254 1254 C840.18 1254 426.36 1254 0 1254 C0 840.18 0 426.36 0 0 Z " fill="#0E382A" transform="translate(0,0)"/>
<path d="M0 0 C0.75796875 0.18304688 1.5159375 0.36609375 2.296875 0.5546875 C14.41311313 3.6802139 24.27440734 10.18158188 33 19 C33.93585938 19.88558594 33.93585938 19.88558594 34.890625 20.7890625 C44.87792103 31.00129763 49.92174182 45.13006821 50.3125 59.125 C50.01920109 74.65440571 45.26836046 87.07670279 39 101 C37.99214184 103.27492054 36.98912018 105.55187707 35.98925781 107.83032227 C35.38795037 109.19752052 34.78209442 110.56273074 34.17089844 111.92553711 C30.90320509 119.27590901 29.00465218 127.53292593 31.87109375 135.38671875 C35.40895108 141.47647317 39.98312557 145.12761255 46.71484375 147.07421875 C50.87051323 148.04864499 55.00769232 148.52714388 59.25 148.9375 C75.0203601 150.68671648 91.2012861 154.83449559 102.01171875 167.32421875 C108.57916515 176.58600214 111.46231179 185.5800413 110 197 C105.95881792 212.87735537 97.38046663 224.68026969 86 236 C85.20851563 236.79148437 84.41703125 237.58296875 83.6015625 238.3984375 C73.7548917 247.70740614 62.08603509 254.97745927 50.82104492 262.42578125 C27.00240924 277.28832396 27.00240924 277.28832396 12 300 C10.9822092 305.55158618 11.82362644 310.197167 14.625 315.08984375 C22.07661473 325.4416608 33.89971703 328.42275455 45.56640625 331.91015625 C55.37048004 335.0220295 64.82534845 338.61506506 73 345 C73.68449219 345.51046875 74.36898437 346.0209375 75.07421875 346.546875 C83.28577017 353.11611614 89.41250596 362.51681866 91 373 C92.32089202 391.25063483 86.97936416 405.59712071 75.0703125 419.6796875 C74.38710938 420.44539063 73.70390625 421.21109375 73 422 C72.35804688 422.72445313 71.71609375 423.44890625 71.0546875 424.1953125 C59.4021013 436.55680128 44.96246597 445.25825979 30 453 C29.319375 453.35545898 28.63875 453.71091797 27.9375 454.07714844 C3.08283704 467.00205862 -23.10670733 476.57591434 -49.4375 486 C-50.27271179 486.29908264 -51.10792358 486.59816528 -51.96844482 486.90631104 C-54.47105568 487.80238979 -56.97378237 488.69814414 -59.4765625 489.59375 C-60.28882294 489.88442352 -61.10108337 490.17509705 -61.93795776 490.47457886 C-65.69839531 491.81995464 -69.45932276 493.16390698 -73.22167969 494.50390625 C-76.92316974 495.82344315 -80.61812373 497.16066799 -84.3125 498.5 C-85.3655835 498.87253906 -86.41866699 499.24507812 -87.50366211 499.62890625 C-97.68718601 503.34745436 -110.00168275 508.74029617 -115 519 C-116.70769314 523.5021001 -116.9265785 528.586376 -115.19921875 533.0859375 C-109.90717327 542.57888506 -100.15623404 545.88397784 -90.671875 549.96655273 C-80.58405957 554.3810228 -70.98653164 560.488665 -65.125 570.0625 C-62.16390861 577.79423863 -61.51185558 587.24146706 -63.98828125 595.16015625 C-74.29288749 617.65612762 -101.03675593 628.79054782 -122.85546875 637.11328125 C-128.26926514 639.12244995 -133.7161444 641.02872091 -139.1875 642.875 C-140.46052979 643.30462036 -140.46052979 643.30462036 -141.75927734 643.74291992 C-146.55797015 645.319254 -151.32289332 646.59171911 -156.27856445 647.57470703 C-158.01984951 647.84755936 -158.01984951 647.84755936 -159 649 C-162.04372638 649.61599224 -165.08140695 650.17814759 -168.140625 650.70703125 C-169.08193268 650.87251968 -170.02324036 651.03800812 -170.99307251 651.20851135 C-174.07781945 651.748474 -177.16373501 652.28128639 -180.25 652.8125 C-181.29786682 652.99363342 -182.34573364 653.17476685 -183.425354 653.36138916 C-200.2403037 656.26158528 -217.04622953 659.03224739 -234 661 C-235.46663086 661.17354004 -235.46663086 661.17354004 -236.96289062 661.35058594 C-255.60318659 663.46851572 -274.27108812 663.20989298 -293 663 C-289.87966049 657.24164022 -286.73037218 651.50142795 -283.51953125 645.79296875 C-276.03703598 632.47527014 -268.85865797 619.07026511 -262.15087891 605.34130859 C-261.14143876 603.28773817 -260.1152589 601.24470699 -259.07421875 599.20703125 C-245.53713784 572.69072613 -233.6140927 545.3993635 -222 518 C-221.67410889 517.23200073 -221.34821777 516.46400146 -221.01245117 515.67272949 C-212.41085462 495.3905194 -204.13940577 475.00565949 -196.31762695 454.40966797 C-195.27024631 451.69932554 -194.19736278 449.00359071 -193.10986328 446.30932617 C-190.886265 440.76349601 -188.81143206 435.16779471 -186.75390625 429.55859375 C-186.35059586 428.46264893 -185.94728546 427.3667041 -185.53175354 426.23754883 C-184.66192356 423.87334729 -183.79273699 421.50890894 -182.9241333 419.14425659 C-181.53717221 415.36855048 -180.14848337 411.59348399 -178.75927734 407.81860352 C-176.07908358 400.53492676 -173.4008089 393.2505452 -170.72280121 385.96606445 C-163.87686407 367.34468764 -157.02573088 348.72525247 -150.15045166 330.11468506 C-149.41046598 328.11127856 -148.67081456 326.10774856 -147.93157959 324.10406494 C-134.303972 287.16700229 -119.94729957 250.48228053 -104.4140625 214.30078125 C-103.0268629 211.06270483 -101.66478509 207.81529388 -100.3125 204.5625 C-99.87550781 203.51191406 -99.43851563 202.46132813 -98.98828125 201.37890625 C-98.66214844 200.59386719 -98.33601563 199.80882812 -98 199 C-127.61012905 247.17520996 -153.21665335 298.31140087 -177.38354492 349.41113281 C-180.72827628 356.47737224 -184.21509346 363.46631037 -187.73347473 370.44744873 C-190.37424855 375.70400253 -192.96094263 380.98022759 -195.47462463 386.29864502 C-202.96228362 402.13604929 -210.81836204 417.78973902 -218.66137695 433.453125 C-220.66640958 437.45747588 -222.66778367 441.4636428 -224.66823769 445.47028255 C-232.62194785 461.39711278 -240.58049221 477.31265714 -249 493 C-249.7099634 494.32945818 -250.41968125 495.65904752 -251.12915039 496.98876953 C-253.08022361 500.64152058 -255.03921492 504.28995261 -257 507.9375 C-257.98257172 509.76570387 -258.96489716 511.59403829 -259.9465332 513.42274475 C-260.8153265 515.04118068 -261.6849755 516.65915718 -262.5546875 518.27709961 C-263.73653145 520.50363772 -264.88671711 522.73864413 -266 525 C-266.66 525 -267.32 525 -268 525 C-268.10546143 525.71051514 -268.21092285 526.42103027 -268.31958008 527.15307617 C-269.08104741 530.33910793 -270.28495415 532.69495747 -271.88671875 535.55078125 C-272.48830811 536.629646 -273.08989746 537.70851074 -273.7097168 538.82006836 C-274.3686443 539.98440107 -275.02791405 541.14854016 -275.6875 542.3125 C-276.36727349 543.52268246 -277.0467122 544.73305302 -277.72583008 545.94360352 C-301.12517308 587.55149209 -301.12517308 587.55149209 -313.99975586 607.17578125 C-315.09204891 608.97793701 -315.09204891 608.97793701 -315.50219727 611.09716797 C-316.16009954 613.6119744 -317.70015708 614.6745281 -319.546875 616.41113281 C-322.63332565 619.7859011 -324.72500438 623.93128933 -327 627.875 C-335.52738516 642.52738516 -335.52738516 642.52738516 -340 647 C-340.33 647.66 -340.66 648.32 -341 649 C-342 651 -342 651 -344 653 C-344.69748583 654.31747324 -345.36959957 655.64914193 -346 657 C-346.66 657 -347.32 657 -348 657 C-348.36158203 657.78697266 -348.36158203 657.78697266 -348.73046875 658.58984375 C-350.38155277 661.72436326 -352.3354292 664.62839315 -354.3125 667.5625 C-354.74401367 668.20582275 -355.17552734 668.84914551 -355.62011719 669.51196289 C-357.07594215 671.67746399 -358.53708288 673.83928396 -360 676 C-360.54253418 676.80147461 -361.08506836 677.60294922 -361.64404297 678.42871094 C-363.34271059 680.93391554 -365.04544833 683.43629575 -366.75 685.9375 C-367.28020752 686.71746338 -367.81041504 687.49742676 -368.35668945 688.30102539 C-371.38505815 692.72950091 -374.50679302 697.04701302 -377.80957031 701.27563477 C-379.18899267 703.10242223 -379.18899267 703.10242223 -380 706 C-381.66666667 707.66666667 -383.33333333 709.33333333 -385 711 C-385.33 711.99 -385.66 712.98 -386 714 C-386.5775 714.556875 -387.155 715.11375 -387.75 715.6875 C-389.75318872 717.74633285 -390.98352793 719.49739546 -392.4375 721.9375 C-394.56826939 725.4778553 -397.0330956 728.11117203 -400 731 C-400.8353125 732.3921875 -400.8353125 732.3921875 -401.6875 733.8125 C-402.120625 734.534375 -402.55375 735.25625 -403 736 C-403.66 736 -404.32 736 -405 736 C-405 736.99 -405 737.98 -405 739 C-405.66 739 -406.32 739 -407 739 C-407.24878906 739.55558594 -407.49757813 740.11117187 -407.75390625 740.68359375 C-409.22095985 743.41074982 -410.98886002 745.65663723 -412.9375 748.0625 C-413.62714844 748.91972656 -414.31679688 749.77695312 -415.02734375 750.66015625 C-417 753 -417 753 -418.69140625 754.62109375 C-420.26261207 756.08172302 -420.26261207 756.08172302 -421 759 C-421.66 759 -422.32 759 -423 759 C-423.27457031 759.59425781 -423.54914063 760.18851563 -423.83203125 760.80078125 C-424.95056129 762.90690972 -426.09817502 764.42400242 -427.6875 766.1875 C-430.11397934 768.93356443 -432.35764705 771.76053364 -434.5625 774.6875 C-437.10764707 778.00628208 -439.70414846 780.41676501 -443 783 C-444.36363208 784.97946592 -445.69418644 786.9819245 -447 789 C-450.78532357 793.86125533 -450.78532357 793.86125533 -453 796 C-453.66 796 -454.32 796 -455 796 C-455 796.66 -455 797.32 -455 798 C-455.66 798 -456.32 798 -457 798 C-457.33 798.99 -457.66 799.98 -458 801 C-458.66 801 -459.32 801 -460 801 C-460 801.99 -460 802.98 -460 804 C-460.66 804 -461.32 804 -462 804 C-462 804.66 -462 805.32 -462 806 C-462.66 806 -463.32 806 -464 806 C-464.27328125 806.59329102 -464.5465625 807.18658203 -464.828125 807.79785156 C-466.67341973 811.2654679 -469.33613952 813.89137614 -472 816.75 C-472.5465625 817.35199219 -473.093125 817.95398437 -473.65625 818.57421875 C-475.06002911 820.09153882 -476.52583763 821.5509654 -478 823 C-478.66 823 -479.32 823 -480 823 C-480 823.66 -480 824.32 -480 825 C-486.00955928 830.4944542 -491.13233869 831.41118451 -499.06640625 831.24609375 C-506.00685671 830.66387221 -511.42635369 827.08446915 -516 822 C-517.8125 818.5 -517.8125 818.5 -519 815 C-519.5878125 813.576875 -519.5878125 813.576875 -520.1875 812.125 C-522.09204891 804.79981188 -521.40693272 799.18142035 -517.72265625 792.53125 C-512.00710423 784.13288784 -503.75744866 778.04636845 -495.78515625 771.92578125 C-491.73510882 768.81419829 -487.77011837 765.60290464 -483.8125 762.375 C-483.13453369 761.82239502 -482.45656738 761.26979004 -481.75805664 760.70043945 C-480.44118301 759.62628685 -479.12468219 758.551677 -477.80859375 757.4765625 C-476.2076452 756.16952459 -474.60402024 754.86576644 -473 753.5625 C-463.17805274 745.56789177 -453.44290674 737.44058703 -444 729 C-443.02933594 728.13375 -442.05867188 727.2675 -441.05859375 726.375 C-436.21056801 722.01140247 -431.53341211 717.67448953 -427.41015625 712.6015625 C-425.21604369 710.10963411 -422.68144239 708.04661171 -420.16015625 705.89453125 C-413.20312452 700.10727857 -413.20312452 700.10727857 -407.9609375 692.91796875 C-406.50981926 690.02163113 -404.17167998 688.5236827 -401.65625 686.5625 C-399.83056335 684.8401541 -399.04590277 683.26079419 -398 681 C-396.71182656 679.62298702 -395.37195574 678.29355827 -394 677 C-382.93787249 666.70854211 -382.93787249 666.70854211 -378 653 C-379.96146202 646.46948527 -385.10144848 641.17407472 -389.42578125 636.06640625 C-391 634 -391 634 -391 632 C-391.99 631.67 -392.98 631.34 -394 631 C-395.36363208 629.02053408 -396.69418644 627.0180755 -398 625 C-398.7425 624.2575 -399.485 623.515 -400.25 622.75 C-400.8275 622.1725 -401.405 621.595 -402 621 C-402 620.34 -402 619.68 -402 619 C-402.61875 618.773125 -403.2375 618.54625 -403.875 618.3125 C-406.66733034 616.58782538 -406.82759947 615.03444844 -408 612 C-408.84244542 610.91150702 -409.7198784 609.84946004 -410.625 608.8125 C-413 606 -413 606 -413 604 C-413.66 604 -414.32 604 -415 604 C-416.09399414 602.6015625 -416.09399414 602.6015625 -417.28515625 600.625 C-417.72851318 599.89619629 -418.17187012 599.16739258 -418.62866211 598.41650391 C-419.10182861 597.61905762 -419.57499512 596.82161133 -420.0625 596 C-420.55564697 595.1754834 -421.04879395 594.3509668 -421.55688477 593.50146484 C-422.56822526 591.80377019 -423.57561766 590.10371755 -424.57910156 588.40136719 C-425.80368508 586.33177897 -427.04956469 584.27767108 -428.3046875 582.2265625 C-445.75559863 553.15096488 -460.65434478 516.10050342 -454.32421875 481.77734375 C-451.75316572 472.09342155 -446.29803381 464.10957183 -438.1875 458.25390625 C-432.55383538 455.02460921 -427.5531419 453.41853039 -421.0625 453.4375 C-419.97074463 453.43568726 -419.97074463 453.43568726 -418.85693359 453.43383789 C-410.55117448 453.67623082 -403.50465718 456.68804249 -396 460 C-390.95909934 461.68030022 -385.794195 461.93298504 -380.70703125 460.234375 C-375.70423689 457.56872097 -373.30578241 454.17915968 -371.5703125 448.82421875 C-367.4084692 428.21454268 -381.77860858 401.89381008 -388.72698975 382.77876282 C-389.59356298 380.39407659 -390.45684005 378.00821319 -391.32006836 375.62231445 C-392.40912372 372.614685 -393.51549434 369.61433081 -394.63500977 366.61791992 C-397.97217769 357.58438494 -400.48931811 348.60828983 -402.38842773 339.16772461 C-402.81798151 337.03528811 -403.26604047 334.90734286 -403.71679688 332.77929688 C-408.96770195 307.64678306 -410.5306018 279.74590822 -396.5625 257.125 C-395.39636269 255.4020134 -394.21056338 253.69206836 -393 252 C-392.53980469 251.34257812 -392.07960938 250.68515625 -391.60546875 250.0078125 C-384.95733261 241.3863103 -374.45847563 236.28062243 -364 234 C-347.53097453 231.87284225 -333.34825339 239.4728343 -320.3125 248.625 C-309.67245609 256.19640934 -309.67245609 256.19640934 -297 257 C-291.59860632 255.89404736 -287.73545543 253.71967161 -284.41137695 249.27099609 C-279.18321238 240.85854378 -278.35222291 231.60238569 -278.5 221.9375 C-278.50773438 220.6489209 -278.51546875 219.3603418 -278.5234375 218.03271484 C-278.72414349 202.57428492 -280.17418281 187.14866198 -281.57617188 171.76147461 C-282.53141469 161.04134201 -283.18489222 150.39952591 -283.20703125 139.6328125 C-283.21045532 138.63178497 -283.21387939 137.63075745 -283.21740723 136.59939575 C-283.02540102 107.01526594 -274.60884395 76.36868837 -254.2578125 54.19921875 C-243.27773379 43.50409018 -231.10512872 37.83032136 -215.9375 37.6875 C-214.93783203 37.65849609 -213.93816406 37.62949219 -212.90820312 37.59960938 C-199.50205965 37.4863671 -188.17425159 43.82803064 -178.6184082 53.01269531 C-175.04151784 56.5743285 -171.75740635 60.16755203 -168.875 64.3125 C-164.71779435 70.16382703 -158.04952416 74.59009517 -151 76 C-141.85359305 76.9291588 -134.41836737 75.33264503 -127.02734375 69.7578125 C-123.87239112 67.03533315 -121.36528214 63.88740624 -118.875 60.5625 C-97.02173293 32.16077545 -69.22940034 3.66056323 -31.9375 -1.6875 C-21.43491844 -2.59911648 -10.14468548 -3.15523682 0 0 Z " fill="#68BA94" transform="translate(833,209)"/>
<path d="M0 0 C0.66 0.33 1.32 0.66 2 1 C-7.15667541 11.5537417 -13.99505928 18.3069322 -28.25 20.5 C-34.05935519 19.72541931 -39.05066926 17.08676014 -44 14 C-44.66 13.01 -45.32 12.02 -46 11 C-45.34 11.268125 -44.68 11.53625 -44 11.8125 C-42.515 12.4003125 -42.515 12.4003125 -41 13 C-39.80375 13.53625 -38.6075 14.0725 -37.375 14.625 C-29.44832726 17.53045335 -21.80284998 16.62370078 -14.21484375 13.1953125 C-8.27739917 9.99097733 -4.1875558 5.15277256 0 0 Z " fill="#91C8A6" transform="translate(715,269)"/>
<path d="M0 0 C0.66 0.33 1.32 0.66 2 1 C-1.96 4.465 -1.96 4.465 -6 8 C-6.66 7.67 -7.32 7.34 -8 7 C-5.36 4.69 -2.72 2.38 0 0 Z M-10 8 C-9.34 8.33 -8.68 8.66 -8 9 C-8.89203125 9.79664063 -9.7840625 10.59328125 -10.703125 11.4140625 C-11.88572519 12.4840341 -13.06799962 13.55436582 -14.25 14.625 C-14.83652344 15.14707031 -15.42304688 15.66914062 -16.02734375 16.20703125 C-21.29155631 20.99805616 -25.30490058 25.93708577 -27 33 C-27.03182717 34.4163091 -27.03067872 35.83366555 -27 37.25 C-27 38.4875 -27 39.725 -27 41 C-27.66 41.66 -28.32 42.32 -29 43 C-29.62031368 34.20533048 -29.41113405 27.2348422 -24 20 C-19.69691678 15.53007671 -14.98869545 11.67527448 -10 8 Z " fill="#11805B" transform="translate(340,977)"/>
<path d="M0 0 C11.48072213 1.37433462 20.98732726 10.24153378 28 19 C32.96945574 25.94512218 36.30556853 32.41344867 37 41 C34.44136028 37.16204041 32.99129418 33.09685282 31.31640625 28.8125 C30.08907298 26.19030428 29.06313005 24.9309518 27 23 C26.67 22.01 26.34 21.02 26 20 C25.34 19.67 24.68 19.34 24 19 C24 18.34 24 17.68 24 17 C23.34 17 22.68 17 22 17 C21.00003131 15.84734148 20.05049221 14.65076963 19.125 13.4375 C14.64148656 8.11214543 9.04544584 5.27019731 3 2 C2.01 1.34 1.02 0.68 0 0 Z " fill="#ACDAB9" transform="translate(843,214)"/>
<path d="M0 0 C0.66 0.33 1.32 0.66 2 1 C1.41992188 1.42410156 0.83984375 1.84820313 0.2421875 2.28515625 C-9.6825662 9.73691027 -15.93376979 17.32628582 -18.6015625 29.81640625 C-19.10409637 33.83175041 -19.35365863 37.8351177 -19.5625 41.875 C-19.60568359 42.65875 -19.64886719 43.4425 -19.69335938 44.25 C-19.79853351 46.16650649 -19.89967925 48.08323333 -20 50 C-20.33 50 -20.66 50 -21 50 C-21.57712135 33.92075782 -21.35318452 19.65526001 -10 7 C-6.89620766 4.24980426 -3.71346679 1.8567334 0 0 Z " fill="#3FA07B" transform="translate(399,665)"/>
<path d="M0 0 C0.33 0.66 0.66 1.32 1 2 C0.109375 4.35546875 0.109375 4.35546875 -1.25 7.1875 C-1.71535156 8.17363281 -2.18070313 9.15976562 -2.66015625 10.17578125 C-3.10230469 11.10777344 -3.54445313 12.03976562 -4 13 C-5.75725732 16.96301964 -7.41106928 20.96656048 -9 25 C-10.65 25 -12.3 25 -14 25 C-12.54710994 19.92666497 -10.30629156 15.82535013 -7.5625 11.375 C-7.16740234 10.72015625 -6.77230469 10.0653125 -6.36523438 9.390625 C-4.38548019 6.13605406 -2.36403553 2.99495176 0 0 Z " fill="#0D392B" transform="translate(735,407)"/>
<path d="M0 0 C9.29913743 0.42268806 18.48927061 5.48927061 25 12 C30.9235685 18.71886241 30.9235685 18.71886241 31.1640625 22.75 C31.10992188 23.4925 31.05578125 24.235 31 25 C29.3009831 22.9316316 28.10237376 21.44788522 27.5 18.8125 C27.2525 17.9153125 27.2525 17.9153125 27 17 C26.01 16.67 25.02 16.34 24 16 C24 15.34 24 14.68 24 14 C23.443125 13.7525 22.88625 13.505 22.3125 13.25 C19.57589087 11.77075182 17.32349131 10.06532561 15 8 C15 7.34 15 6.68 15 6 C14.41992188 5.87882812 13.83984375 5.75765625 13.2421875 5.6328125 C8.71971558 4.66264526 4.36249034 3.56602217 0 2 C0 1.34 0 0.68 0 0 Z " fill="#94CFAC" transform="translate(908,362)"/>
<path d="M0 0 C-2 2 -2 2 -5.5 3.25 C-17.65112087 7.68856495 -26.08291016 16.03979021 -34 26 C-34.33 25.01 -34.66 24.02 -35 23 C-26.65297984 13.15015408 -14.16864825 -1.41686482 0 0 Z " fill="#93CCA9" transform="translate(606,249)"/>
<path d="M0 0 C0.66 0.33 1.32 0.66 2 1 C0.88818359 2.00353516 0.88818359 2.00353516 -0.24609375 3.02734375 C-9.80063841 11.71805287 -18.92185757 20.81547948 -28 30 C-28 24.4902628 -22.64578466 20.81887829 -19 17 C-18.17242188 16.13117188 -17.34484375 15.26234375 -16.4921875 14.3671875 C-11.32987852 9.07541622 -5.97269922 4.35689653 0 0 Z " fill="#A9DAB8" transform="translate(754,228)"/>
<path d="M0 0 C0.33 0 0.66 0 1 0 C2.11046742 13.6957648 -2.68790196 25.18639379 -11 36 C-11.99 36.66 -12.98 37.32 -14 38 C-12.125 33.25 -12.125 33.25 -11 31 C-10.34 31 -9.68 31 -9 31 C-8.67 29.35 -8.34 27.7 -8 26 C-7.34 26 -6.68 26 -6 26 C-6 24.68 -6 23.36 -6 22 C-5.34 22 -4.68 22 -4 22 C-4.061875 20.88625 -4.061875 20.88625 -4.125 19.75 C-4 17 -4 17 -3.0625 15.25 C-1.66534144 12.29131129 -1.32776704 9.48405029 -0.875 6.25 C-0.70742188 5.07953125 -0.53984375 3.9090625 -0.3671875 2.703125 C-0.24601563 1.81109375 -0.12484375 0.9190625 0 0 Z " fill="#8FCEAB" transform="translate(941,397)"/>
<path d="M0 0 C1.1647844 2.83175129 0.98187585 4.05899828 0.06640625 7.0390625 C-0.42988281 8.22242188 -0.92617188 9.40578125 -1.4375 10.625 C-1.7046582 11.2658252 -1.97181641 11.90665039 -2.24707031 12.56689453 C-3.15087595 14.71741727 -4.07444416 16.85875414 -5 19 C-5.34369629 19.80630859 -5.68739258 20.61261719 -6.04150391 21.44335938 C-7.10123901 23.92492586 -8.17288656 26.40093158 -9.25 28.875 C-9.59087646 29.66600098 -9.93175293 30.45700195 -10.28295898 31.27197266 C-12.76650979 36.88325489 -12.76650979 36.88325489 -15 38 C-13.25228334 32.53373726 -11.33357994 27.25055486 -9 22 C-6.85371479 17.05212121 -4.80443379 12.07430377 -2.8125 7.0625 C-2.53986328 6.37865234 -2.26722656 5.69480469 -1.98632812 4.99023438 C-1.32341725 3.32714217 -0.66159285 1.66361697 0 0 Z " fill="#A1D7B6" transform="translate(878,289)"/>
<path d="M0 0 C2 1 2 1 2.61328125 2.609375 C3.96291948 10.95259312 3.62188885 19.9704654 1 28 C0.0178006 24.72373625 -0.11580914 21.77211881 -0.09765625 18.359375 C-0.09443359 17.28945313 -0.09121094 16.21953125 -0.08789062 15.1171875 C-0.07951172 14.00601562 -0.07113281 12.89484375 -0.0625 11.75 C-0.05798828 10.62335938 -0.05347656 9.49671875 -0.04882812 8.3359375 C-0.03705397 5.55723783 -0.0206084 2.77864591 0 0 Z " fill="#9DD2AF" transform="translate(880,256)"/>
<path d="M0 0 C0 4.23862191 -2.29523119 6.75918002 -4.625 10.125 C-5.08068359 10.79571533 -5.53636719 11.46643066 -6.00585938 12.1574707 C-7.33190426 14.10868462 -8.66564966 16.05446122 -10 18 C-11.17015513 19.72680788 -12.33759819 21.45546348 -13.5 23.1875 C-13.9434375 23.84105469 -14.386875 24.49460937 -14.84375 25.16796875 C-16.06499866 27.00583715 -16.06499866 27.00583715 -16.96875 29.17578125 C-18 31 -18 31 -21 32 C-19.69134801 28.41555193 -18.12346215 25.49172562 -15.91796875 22.3828125 C-15.31533203 21.52816406 -14.71269531 20.67351563 -14.09179688 19.79296875 C-13.46337891 18.91253906 -12.83496094 18.03210938 -12.1875 17.125 C-11.57068359 16.25230469 -10.95386719 15.37960937 -10.31835938 14.48046875 C-8.55126289 11.98287223 -6.77728578 9.49035314 -5 7 C-4.4838916 6.27651367 -3.9677832 5.55302734 -3.43603516 4.80761719 C-2.29155636 3.20445936 -1.14593074 1.60212031 0 0 Z " fill="#1E8462" transform="translate(484,868)"/>
<path d="M0 0 C0.70703125 1.53515625 0.70703125 1.53515625 1 4 C-0.00999957 6.59011352 -1.06463947 8.96832916 -2.3125 11.4375 C-2.9555748 12.7481354 -3.59752642 14.05932258 -4.23828125 15.37109375 C-4.54588379 15.99097168 -4.85348633 16.61084961 -5.17041016 17.24951172 C-5.89079875 18.7695783 -6.50813066 20.33765845 -7.10546875 21.91015625 C-8 24 -8 24 -10 25 C-8.50314585 16.15046666 -4.75583106 7.57410131 0 0 Z " fill="#81C39F" transform="translate(737,406)"/>
<path d="M0 0 C0.99 0.33 1.98 0.66 3 1 C3.05785647 4.95827235 3.09354717 8.9164367 3.125 12.875 C3.14175781 14.00292969 3.15851562 15.13085938 3.17578125 16.29296875 C3.18222656 17.36933594 3.18867187 18.44570313 3.1953125 19.5546875 C3.20578613 20.54968262 3.21625977 21.54467773 3.22705078 22.56982422 C3 25 3 25 1 27 C-0.3308911 24.33821779 -0.11268993 22.31260604 -0.09765625 19.3359375 C-0.09443359 18.21445312 -0.09121094 17.09296875 -0.08789062 15.9375 C-0.07951172 14.761875 -0.07113281 13.58625 -0.0625 12.375 C-0.05798828 11.19164062 -0.05347656 10.00828125 -0.04882812 8.7890625 C-0.03701467 5.85932493 -0.02054258 2.92968728 0 0 Z " fill="#72B290" transform="translate(550,337)"/>
<path d="M0 0 C10.72250909 0.23827798 18.57877345 8.15432142 25.64746094 15.44287109 C26.77227358 16.62165827 27.88727636 17.80979464 29 19 C28.67 19.66 28.34 20.32 28 21 C27.10861328 20.03900391 27.10861328 20.03900391 26.19921875 19.05859375 C18.52922596 11.05460439 10.41343556 4.93396454 0 1 C0 0.67 0 0.34 0 0 Z " fill="#99D1AE" transform="translate(632,250)"/>
<path d="M0 0 C0.33 0 0.66 0 1 0 C1.33 6.27 1.66 12.54 2 19 C1.34 19.33 0.68 19.66 0 20 C0 13.4 0 6.8 0 0 Z M-1 20 C1 23 1 23 0.75 25 C0 27 0 27 -2 30 C-1.67 26.7 -1.34 23.4 -1 20 Z " fill="#7FCCA4" transform="translate(556,420)"/>
<path d="M0 0 C0.33 0.66 0.66 1.32 1 2 C0.07421875 4.4609375 0.07421875 4.4609375 -1.3125 7.375 C-1.76238281 8.33148438 -2.21226562 9.28796875 -2.67578125 10.2734375 C-3.76868585 12.52372485 -4.87278739 14.7667431 -6 17 C-6.33 16.34 -6.66 15.68 -7 15 C-7.99 15.495 -7.99 15.495 -9 16 C-7.63498381 12.33357971 -5.97203048 9.08922939 -3.9375 5.75 C-3.41027344 4.87859375 -2.88304687 4.0071875 -2.33984375 3.109375 C-1 1 -1 1 0 0 Z " fill="#1F513B" transform="translate(735,407)"/>
<path d="M0 0 C2.49690308 0.9925301 4.9874566 1.99473217 7.46484375 3.03515625 C11.97148179 4.90758248 16.10087331 6.48430245 21 7 C17.54455349 9.09794966 17.54455349 9.09794966 15.17578125 8.671875 C12.7288264 7.91626237 10.33296444 7.0943802 7.9375 6.1875 C7.08027344 5.87167969 6.22304688 5.55585938 5.33984375 5.23046875 C2.71998131 3.85274476 1.57925891 2.46985737 0 0 Z " fill="#9EDAB5" transform="translate(669,280)"/>
<path d="M0 0 C0.66 0.33 1.32 0.66 2 1 C1.38511719 2.10408203 1.38511719 2.10408203 0.7578125 3.23046875 C-0.05042969 4.69419922 -0.05042969 4.69419922 -0.875 6.1875 C-1.40867187 7.15042969 -1.94234375 8.11335938 -2.4921875 9.10546875 C-4.03669289 11.93507995 -4.03669289 11.93507995 -5.0703125 14.80078125 C-6 17 -6 17 -8 18 C-7.45960463 13.44041411 -6.26620958 10.16970963 -4 6.1875 C-3.46375 5.23230469 -2.9275 4.27710938 -2.375 3.29296875 C-1 1 -1 1 0 0 Z " fill="#94D0AB" transform="translate(569,276)"/>
<path d="M0 0 C0.66 0 1.32 0 2 0 C0.41438362 3.85593074 -2.06509954 6.33216291 -5 9.25 C-5.886875 10.14203125 -6.77375 11.0340625 -7.6875 11.953125 C-10 14 -10 14 -12 14 C-12 13.34 -12 12.68 -12 12 C-11.34 12 -10.68 12 -10 12 C-9.79375 11.443125 -9.5875 10.88625 -9.375 10.3125 C-7.48959912 7.14159851 -4.84640641 5.31270521 -2 3 C-1.34 2.01 -0.68 1.02 0 0 Z " fill="#88C9A6" transform="translate(925,435)"/>
<path d="M0 0 C0.99 0.495 0.99 0.495 2 1 C1.98839844 1.6290625 1.97679687 2.258125 1.96484375 2.90625 C1.90713127 8.38069088 2.19771527 13.58457806 3 19 C2.34 19.33 1.68 19.66 1 20 C-0.05619003 15.71702469 -0.11702092 11.57014354 -0.0625 7.1875 C-0.05798828 6.49462891 -0.05347656 5.80175781 -0.04882812 5.08789062 C-0.03713156 3.39188932 -0.01919924 1.69593297 0 0 Z " fill="#84CBA7" transform="translate(553,382)"/>
<path d="M0 0 C0.66 0 1.32 0 2 0 C2.13609467 8.16568047 2.13609467 8.16568047 1 12 C1 12.99 1 13.98 1 15 C0.34 15 -0.32 15 -1 15 C-1.18451025 4.44191344 -1.18451025 4.44191344 0 0 Z " fill="#8BCAA7" transform="translate(554,311)"/>
<path d="M0 0 C0.99 0 1.98 0 3 0 C1.60961435 5.13373162 -0.08460953 10.03739743 -2 15 C-2.33 15 -2.66 15 -3 15 C-3.36263859 9.1977825 -2.25684543 5.36000789 0 0 Z " fill="#8CCBA6" transform="translate(559,295)"/>
<path d="M0 0 C2.71566987 2.34307137 2.9773321 2.74158599 3.3125 6.5625 C3 10 3 10 1 12 C-0.26237731 9.47524538 -0.09856404 7.68799534 -0.0625 4.875 C-0.05347656 3.96492188 -0.04445313 3.05484375 -0.03515625 2.1171875 C-0.02355469 1.41851562 -0.01195312 0.71984375 0 0 Z " fill="#75BD99" transform="translate(554,403)"/>
<path d="M0 0 C1.79133978 -0.05391993 3.58313899 -0.09275571 5.375 -0.125 C6.37273438 -0.14820313 7.37046875 -0.17140625 8.3984375 -0.1953125 C11 0 11 0 13 2 C4.57142857 3.28571429 4.57142857 3.28571429 0 2 C0 1.34 0 0.68 0 0 Z " fill="#95D0AD" transform="translate(882,358)"/>
<path d="M0 0 C1.09375 3.765625 1.09375 3.765625 0.25 5.875 C-0.1625 6.57625 -0.575 7.2775 -1 8 C-1.53625 9.0725 -2.0725 10.145 -2.625 11.25 C-3.07875 12.1575 -3.5325 13.065 -4 14 C-4.66 14 -5.32 14 -6 14 C-4.16508812 9.25981099 -2.08058541 4.63586749 0 0 Z " fill="#329470" transform="translate(577,802)"/>
<path d="M0 0 C0.99 0.33 1.98 0.66 3 1 C1.54634731 2.17249353 0.08692581 3.33783816 -1.375 4.5 C-2.18710937 5.1496875 -2.99921875 5.799375 -3.8359375 6.46875 C-6 8 -6 8 -8 8 C-8 7.34 -8 6.68 -8 6 C-7.01 6 -6.02 6 -5 6 C-4.67 5.01 -4.34 4.02 -4 3 C-3.01 3 -2.02 3 -1 3 C-0.67 2.01 -0.34 1.02 0 0 Z " fill="#83C6A3" transform="translate(909,450)"/>
<path d="M0 0 C0.66 0.33 1.32 0.66 2 1 C-0.97 4.3 -3.94 7.6 -7 11 C-7 7.22089522 -6.00296038 6.53893899 -3.5 3.8125 C-2.8503125 3.09707031 -2.200625 2.38164062 -1.53125 1.64453125 C-1.0259375 1.10183594 -0.520625 0.55914062 0 0 Z " fill="#9FD5B2" transform="translate(715,269)"/>
<path d="M0 0 C0.33 0.66 0.66 1.32 1 2 C0.22265625 4.1640625 0.22265625 4.1640625 -0.9375 6.625 C-1.31777344 7.44226563 -1.69804688 8.25953125 -2.08984375 9.1015625 C-2.39019531 9.72804688 -2.69054687 10.35453125 -3 11 C-3.33 11 -3.66 11 -4 11 C-3.54177532 7.53058454 -3.10868317 4.32604951 -2 1 C-1.34 0.67 -0.68 0.34 0 0 Z " fill="#7DC19C" transform="translate(723,440)"/>
<path d="M0 0 C0 1.65 0 3.3 0 5 C-0.99 5.495 -0.99 5.495 -2 6 C-2.66 5.67 -3.32 5.34 -4 5 C-4 5.66 -4 6.32 -4 7 C-4.66 7 -5.32 7 -6 7 C-3.60526316 0 -3.60526316 0 0 0 Z " fill="#144534" transform="translate(729,421)"/>
<path d="M0 0 C1.4370809 -0.05422947 2.87475462 -0.09289723 4.3125 -0.125 C5.11300781 -0.14820313 5.91351562 -0.17140625 6.73828125 -0.1953125 C9 0 9 0 12 2 C8.98968256 2.93423645 8.13349732 3.04449911 5 2 C3.33637583 1.65179959 1.67004829 1.31595508 0 1 C0 0.67 0 0.34 0 0 Z " fill="#9AD7B3" transform="translate(895,360)"/>
<path d="M0 0 C4.05606165 0.46800711 7.46588679 0.87953208 11 3 C7.19825711 4.26724763 5.6488868 3.4750819 2 2 C1.34 1.34 0.68 0.68 0 0 Z " fill="#7BC5A0" transform="translate(875,541)"/>
<path d="M0 0 C0.33 0.66 0.66 1.32 1 2 C-1.48387097 8.74193548 -1.48387097 8.74193548 -4 10 C-3.43454163 6.04179141 -2.19097652 3.3340947 0 0 Z " fill="#88CBA8" transform="translate(731,421)"/>
</svg>
