<svg xmlns="http://www.w3.org/2000/svg" style="display:none">
  <defs>
    <symbol id="icon-menu" viewBox="0 0 24 24">
      <line x1="3" y1="6" x2="21" y2="6"/><line x1="3" y1="12" x2="21" y2="12"/><line x1="3" y1="18" x2="21" y2="18"/>
    </symbol>
    <symbol id="icon-x" viewBox="0 0 24 24">
      <line x1="6" y1="6" x2="18" y2="18"/><line x1="18" y1="6" x2="6" y2="18"/>
    </symbol>
    <symbol id="icon-sun" viewBox="0 0 24 24">
      <circle cx="12" cy="12" r="4"/>
      <line x1="12" y1="2" x2="12" y2="4.5"/><line x1="12" y1="19.5" x2="12" y2="22"/>
      <line x1="2" y1="12" x2="4.5" y2="12"/><line x1="19.5" y1="12" x2="22" y2="12"/>
      <line x1="4.9" y1="4.9" x2="6.6" y2="6.6"/><line x1="17.4" y1="17.4" x2="19.1" y2="19.1"/>
      <line x1="4.9" y1="19.1" x2="6.6" y2="17.4"/><line x1="17.4" y1="6.6" x2="19.1" y2="4.9"/>
    </symbol>
    <symbol id="icon-moon" viewBox="0 0 24 24">
      <path d="M20 14.5A8 8 0 1 1 9.5 4 6.5 6.5 0 0 0 20 14.5Z"/>
    </symbol>
    <symbol id="icon-arrow-right" viewBox="0 0 24 24">
      <line x1="4" y1="12" x2="20" y2="12"/><polyline points="13,5 20,12 13,19"/>
    </symbol>
    <symbol id="icon-arrow-up-right" viewBox="0 0 24 24">
      <line x1="6" y1="18" x2="18" y2="6"/><polyline points="8,6 18,6 18,16"/>
    </symbol>
    <symbol id="icon-check" viewBox="0 0 24 24">
      <polyline points="4,12 10,18 20,6"/>
    </symbol>
    <symbol id="icon-check-circle" viewBox="0 0 24 24">
      <circle cx="12" cy="12" r="9"/><polyline points="7.5,12.5 10.5,15.5 16.5,8.5"/>
    </symbol>
    <symbol id="icon-sparkles" viewBox="0 0 24 24">
      <path d="M11 3l1.6 4.4L17 9l-4.4 1.6L11 15l-1.6-4.4L5 9l4.4-1.6L11 3Z"/>
      <path d="M18.5 13l.8 2.2 2.2.8-2.2.8-.8 2.2-.8-2.2-2.2-.8 2.2-.8.8-2.2Z"/>
    </symbol>
    <symbol id="icon-chevron-down" viewBox="0 0 24 24">
      <polyline points="5,8 12,15 19,8"/>
    </symbol>
    <symbol id="icon-mail" viewBox="0 0 24 24">
      <rect x="3" y="5" width="18" height="14" rx="2"/><polyline points="3,7 12,13 21,7"/>
    </symbol>
    <symbol id="icon-phone" viewBox="0 0 24 24">
      <path d="M6.6 10.8c1.3 2.6 3.4 4.7 6 6l2-2c.3-.3.7-.4 1.1-.3 1.2.4 2.5.6 3.8.6.6 0 1 .5 1 1v3.5c0 .6-.4 1-1 1C10.6 20.6 3.4 13.4 3.4 4.5c0-.6.4-1 1-1H8c.6 0 1 .4 1 1 0 1.3.2 2.6.6 3.8.1.4 0 .8-.3 1.1l-2 2Z"/>
    </symbol>
    <symbol id="icon-map-pin" viewBox="0 0 24 24">
      <path d="M12 21s7-6.5 7-11.5A7 7 0 0 0 5 9.5C5 14.5 12 21 12 21Z"/><circle cx="12" cy="9.5" r="2.5"/>
    </symbol>
    <symbol id="icon-clock" viewBox="0 0 24 24">
      <circle cx="12" cy="12" r="9"/><polyline points="12,7 12,12 15.5,14"/>
    </symbol>
    <symbol id="icon-send" viewBox="0 0 24 24">
      <polygon points="3,11 21,4 14,22 10.5,13.5 3,11"/><line x1="10.5" y1="13.5" x2="21" y2="4"/>
    </symbol>
    <symbol id="icon-star" viewBox="0 0 24 24">
      <polygon points="12,3 14.9,9.4 22,10.1 16.7,14.9 18.2,21.9 12,18.3 5.8,21.9 7.3,14.9 2,10.1 9.1,9.4"/>
    </symbol>
    <symbol id="icon-share" viewBox="0 0 24 24">
      <circle cx="6" cy="12" r="2.5"/><circle cx="18" cy="5" r="2.5"/><circle cx="18" cy="19" r="2.5"/>
      <line x1="8.2" y1="10.8" x2="15.8" y2="6.2"/><line x1="8.2" y1="13.2" x2="15.8" y2="17.8"/>
    </symbol>
    <symbol id="icon-square-plus" viewBox="0 0 24 24">
      <rect x="3" y="3" width="18" height="18" rx="4"/><line x1="12" y1="8" x2="12" y2="16"/><line x1="8" y1="12" x2="16" y2="12"/>
    </symbol>
    <symbol id="icon-wifi" viewBox="0 0 24 24">
      <path d="M2 8.5a15 15 0 0 1 20 0"/><path d="M5.5 12.5a10 10 0 0 1 13 0"/><path d="M9 16.5a5 5 0 0 1 6 0"/><circle cx="12" cy="20" r="1" fill="currentColor" stroke="none"/>
    </symbol>
    <symbol id="icon-battery" viewBox="0 0 24 24">
      <rect x="2" y="8" width="18" height="8" rx="2"/><line x1="22" y1="11" x2="22" y2="13"/>
      <rect x="4" y="10" width="12" height="4" fill="currentColor" stroke="none"/>
    </symbol>
    <symbol id="icon-signal" viewBox="0 0 24 24">
      <line x1="4" y1="19" x2="4" y2="15"/><line x1="9" y1="19" x2="9" y2="12"/>
      <line x1="14" y1="19" x2="14" y2="9"/><line x1="19" y1="19" x2="19" y2="5"/>
    </symbol>

    <symbol id="icon-layout-template" viewBox="0 0 24 24">
      <rect x="3" y="3" width="18" height="7" rx="1.5"/><rect x="3" y="13" width="8" height="8" rx="1.5"/><rect x="13" y="13" width="8" height="8" rx="1.5"/>
    </symbol>
    <symbol id="icon-refresh-ccw" viewBox="0 0 24 24">
      <path d="M3 12a9 9 0 0 1 15.4-6.4L21 8"/><polyline points="21,3 21,8 16,8"/>
      <path d="M21 12a9 9 0 0 1-15.4 6.4L3 16"/><polyline points="3,21 3,16 8,16"/>
    </symbol>
    <symbol id="icon-wrench" viewBox="0 0 24 24">
      <path d="M17.5 3a4.5 4.5 0 0 0-4.5 6.4L4 18.5 6.5 21l9-9.1A4.5 4.5 0 1 0 17.5 3Z"/>
    </symbol>
    <symbol id="icon-gauge" viewBox="0 0 24 24">
      <circle cx="12" cy="13" r="8"/><line x1="12" y1="13" x2="15.5" y2="9"/>
      <line x1="7" y1="13" x2="6" y2="13"/><line x1="17" y1="13" x2="18" y2="13"/><line x1="9" y1="7.5" x2="8.3" y2="6.7"/>
    </symbol>
    <symbol id="icon-shopping-cart" viewBox="0 0 24 24">
      <circle cx="9" cy="20" r="1.3"/><circle cx="18" cy="20" r="1.3"/>
      <path d="M2.5 3h2.5l2.4 12.2a2 2 0 0 0 2 1.6h8.3a2 2 0 0 0 2-1.6L21.5 7H6.2"/>
    </symbol>
    <symbol id="icon-briefcase" viewBox="0 0 24 24">
      <rect x="2.5" y="7.5" width="19" height="12" rx="2"/>
      <path d="M8.5 7.5V5.8A1.8 1.8 0 0 1 10.3 4h3.4A1.8 1.8 0 0 1 15.5 5.8V7.5"/>
      <line x1="2.5" y1="12.5" x2="21.5" y2="12.5"/>
    </symbol>
    <symbol id="icon-code" viewBox="0 0 24 24">
      <polyline points="8,6 3,12 8,18"/><polyline points="16,6 21,12 16,18"/>
    </symbol>
    <symbol id="icon-camera" viewBox="0 0 24 24">
      <path d="M4 8.5A1.5 1.5 0 0 1 5.5 7H8l1.2-2h5.6L16 7h2.5A1.5 1.5 0 0 1 20 8.5v9A1.5 1.5 0 0 1 18.5 19h-13A1.5 1.5 0 0 1 4 17.5Z"/>
      <circle cx="12" cy="13" r="3.5"/>
    </symbol>
    <symbol id="icon-rocket" viewBox="0 0 24 24">
      <path d="M12 2c3 1 5.5 4 5.5 8 0 3-1.2 5.5-2.5 7l-3-1-3 1c-1.3-1.5-2.5-4-2.5-7 0-4 2.5-7 5.5-8Z"/>
      <circle cx="12" cy="9.5" r="1.6"/><path d="M9 16l-2.5 3.5L9 19Z"/><path d="M15 16l2.5 3.5L15 19Z"/>
    </symbol>

    <symbol id="icon-facebook" viewBox="0 0 24 24">
      <path d="M15 4h-2a4 4 0 0 0-4 4v3H7v4h2v7h4v-7h2.6l.4-4h-3V8a1 1 0 0 1 1-1h2z"/>
    </symbol>
    <symbol id="icon-instagram" viewBox="0 0 24 24">
      <rect x="3" y="3" width="18" height="18" rx="5"/><circle cx="12" cy="12" r="4"/>
      <circle cx="17.2" cy="6.8" r="0.6" fill="currentColor" stroke="none"/>
    </symbol>
    <symbol id="icon-linkedin" viewBox="0 0 24 24">
      <rect x="3" y="3" width="18" height="18" rx="3"/><line x1="7.5" y1="10" x2="7.5" y2="17"/>
      <line x1="7.5" y1="6.8" x2="7.5" y2="6.9"/><path d="M11.5 17v-4a2.5 2.5 0 0 1 5 0v4"/>
      <line x1="16.5" y1="10" x2="16.5" y2="17"/><line x1="11.5" y1="10" x2="11.5" y2="17"/>
    </symbol>
  </defs>
</svg>
