<svg xmlns="http://www.w3.org/2000/svg" viewBox="0 0 1200 1200" role="img" aria-label="Product placeholder photo">
  <defs>
    <linearGradient id="grad7" x1="0%" y1="0%" x2="100%" y2="100%">
      <stop offset="0%" stop-color="#44403c"/>
      <stop offset="100%" stop-color="#1c1917"/>
    </linearGradient>
    <pattern id="dots7" width="28" height="28" patternUnits="userSpaceOnUse">
      <circle cx="1" cy="1" r="1.1" fill="rgba(255,255,255,0.16)"/>
    </pattern>
  </defs>
  <rect width="1200" height="1200" fill="url(#grad7)"/>
  <rect width="1200" height="1200" fill="url(#dots7)"/>
  <circle cx="663" cy="308" r="420" fill="rgba(255,255,255,0.06)"/>
  <g transform="translate(516.0,516.0) scale(7.000)" fill="none" stroke="rgba(255,255,255,0.55)" stroke-width="1.6" stroke-linecap="round" stroke-linejoin="round">
    <path d="M9 8h2l1.4-1.8a1 1 0 0 1 .8-.4h5.6a1 1 0 0 1 .8.4L21 8h2a2 2 0 0 1 2 2v9a2 2 0 0 1-2 2H9a2 2 0 0 1-2-2v-9a2 2 0 0 1 2-2z"/>
    <circle cx="14" cy="14.5" r="3.2"/>
  </g>
  <rect x="0" y="1032" width="1200" height="168" fill="rgba(0,0,0,0.28)"/>
  <text x="54" y="1146" font-family="Manrope, sans-serif" font-size="54" font-weight="700" fill="rgba(255,255,255,0.92)">Product</text>
</svg>