<svg xmlns="http://www.w3.org/2000/svg" viewBox="0 0 1600 900" role="img" aria-label="Storefront Wide placeholder photo">
  <defs>
    <linearGradient id="grad19" x1="0%" y1="0%" x2="100%" y2="100%">
      <stop offset="0%" stop-color="#57534e"/>
      <stop offset="100%" stop-color="#292524"/>
    </linearGradient>
    <pattern id="dots19" width="28" height="28" patternUnits="userSpaceOnUse">
      <circle cx="1" cy="1" r="1.1" fill="rgba(255,255,255,0.16)"/>
    </pattern>
  </defs>
  <rect width="1600" height="900" fill="url(#grad19)"/>
  <rect width="1600" height="900" fill="url(#dots19)"/>
  <circle cx="1386" cy="44" r="315" fill="rgba(255,255,255,0.06)"/>
  <g transform="translate(737.0,387.0) scale(5.250)" fill="none" stroke="rgba(255,255,255,0.55)" stroke-width="1.6" stroke-linecap="round" stroke-linejoin="round">
    <path d="M9 8h2l1.4-1.8a1 1 0 0 1 .8-.4h5.6a1 1 0 0 1 .8.4L21 8h2a2 2 0 0 1 2 2v9a2 2 0 0 1-2 2H9a2 2 0 0 1-2-2v-9a2 2 0 0 1 2-2z"/>
    <circle cx="14" cy="14.5" r="3.2"/>
  </g>
  <rect x="0" y="774" width="1600" height="126" fill="rgba(0,0,0,0.28)"/>
  <text x="72" y="860" font-family="Manrope, sans-serif" font-size="40" font-weight="700" fill="rgba(255,255,255,0.92)">Storefront Wide</text>
</svg>