<svg xmlns="http://www.w3.org/2000/svg" viewBox="0 0 1400 1867" role="img" aria-label="Interior Detail placeholder photo">
  <defs>
    <linearGradient id="grad18" x1="0%" y1="0%" x2="100%" y2="100%">
      <stop offset="0%" stop-color="#c0812e"/>
      <stop offset="100%" stop-color="#764c17"/>
    </linearGradient>
    <pattern id="dots18" width="28" height="28" patternUnits="userSpaceOnUse">
      <circle cx="1" cy="1" r="1.1" fill="rgba(255,255,255,0.16)"/>
    </pattern>
  </defs>
  <rect width="1400" height="1867" fill="url(#grad18)"/>
  <rect width="1400" height="1867" fill="url(#dots18)"/>
  <circle cx="371" cy="251" r="490" fill="rgba(255,255,255,0.06)"/>
  <g transform="translate(602.0,835.5) scale(8.167)" fill="none" stroke="rgba(255,255,255,0.55)" stroke-width="1.6" stroke-linecap="round" stroke-linejoin="round">
    <path d="M9 8h2l1.4-1.8a1 1 0 0 1 .8-.4h5.6a1 1 0 0 1 .8.4L21 8h2a2 2 0 0 1 2 2v9a2 2 0 0 1-2 2H9a2 2 0 0 1-2-2v-9a2 2 0 0 1 2-2z"/>
    <circle cx="14" cy="14.5" r="3.2"/>
  </g>
  <rect x="0" y="1606" width="1400" height="261" fill="rgba(0,0,0,0.28)"/>
  <text x="63" y="1783" font-family="Manrope, sans-serif" font-size="63" font-weight="700" fill="rgba(255,255,255,0.92)">Interior Detail</text>
</svg>